<svg xmlns="http://www.w3.org/2000/svg" xmlns:xlink="http://www.w3.org/1999/xlink" viewBox="1 1 176 176"><defs><circle id="a" cy="96" cx="96" r="88"/></defs><clipPath id="b"><use width="100%" overflow="visible" xlink:href="#a" height="100%"/></clipPath><g transform="translate(-7 -7)" clip-path="url(#b)"><path d="M22 8v108h39l35-60h88V8z" fill="#db4437"/><linearGradient id="c" y2="44.4" gradientUnits="userSpaceOnUse" y1="75" x2="81.8" x1="29.3"><stop stop-color="#A52714" stop-opacity=".6" offset="0"/><stop stop-color="#A52714" stop-opacity="0" offset=".7"/></linearGradient><path d="M22 8v108h39l35-60h88V8z" fill="url(#c)"/></g><path clip-path="url(#b)" fill-opacity=".1" d="M62 116L22 47v1l39 68z" transform="translate(-7 -7)" fill="#3e2723"/><g transform="translate(-7 -7)" clip-path="url(#b)"><path d="M8 184h84l39-39v-29H61L8 24z" fill="#0f9d58"/><linearGradient id="d" y2="130.3" gradientUnits="userSpaceOnUse" y1="164.5" x2="52.5" x1="110.9"><stop stop-color="#055524" stop-opacity=".4" offset="0"/><stop stop-color="#055524" stop-opacity="0" offset=".3"/></linearGradient><path d="M8 184h84l39-39v-29H61L8 24z" fill="url(#d)"/></g><path clip-path="url(#b)" fill-opacity=".1" d="M130 117h-1l-38 67h1l38-67z" transform="translate(-7 -7)" fill="#263238"/><g transform="translate(-7 -7)" clip-path="url(#b)"><defs><path id="e" d="M8 184h84l39-39v-29H61L8 24z"/></defs><clipPath id="f"><use width="100%" overflow="visible" xlink:href="#e" height="100%"/></clipPath><g clip-path="url(#f)"><path d="M96 56l35 60-39 68h92V56z" fill="#ffcd40"/><linearGradient id="g" y2="114.1" gradientUnits="userSpaceOnUse" y1="49.8" x2="136.6" x1="121.9"><stop stop-color="#EA6100" stop-opacity=".3" offset="0"/><stop stop-color="#EA6100" stop-opacity="0" offset=".7"/></linearGradient><path d="M96 56l35 60-39 68h92V56z" fill="url(#g)"/></g></g><g transform="translate(-7 -7)" clip-path="url(#b)"><path d="M96 56l35 60-39 68h92V56z" fill="#ffcd40"/><path d="M96 56l35 60-39 68h92V56z" fill="url(#g)"/></g><g transform="translate(-7 -7)" clip-path="url(#b)"><defs><path id="h" d="M96 56l35 60-39 68h92V56z"/></defs><clipPath id="i"><use width="100%" overflow="visible" xlink:href="#h" height="100%"/></clipPath><g clip-path="url(#i)"><path d="M22 8v108h39l35-60h88V8z" fill="#db4437"/><path d="M22 8v108h39l35-60h88V8z" fill="url(#c)"/></g></g><radialGradient id="j" gradientUnits="userSpaceOnUse" cy="55.9" cx="668.2" gradientTransform="translate(-576)" r="84.1"><stop stop-color="#3E2723" stop-opacity=".2" offset="0"/><stop stop-color="#3E2723" stop-opacity="0" offset="1"/></radialGradient><path clip-path="url(#b)" d="M96 56v21l78-21z" transform="translate(-7 -7)" fill="url(#j)"/><g transform="translate(-7 -7)" clip-path="url(#b)"><defs><path id="k" d="M22 8v40l39 68 35-60h88V8z"/></defs><clipPath id="l"><use width="100%" overflow="visible" xlink:href="#k" height="100%"/></clipPath><g clip-path="url(#l)"><path d="M8 184h84l39-39v-29H61L8 24z" fill="#0f9d58"/><path d="M8 184h84l39-39v-29H61L8 24z" fill="url(#d)"/></g></g><radialGradient id="m" gradientUnits="userSpaceOnUse" cy="48.5" cx="597.9" gradientTransform="translate(-576)" r="78"><stop stop-color="#3E2723" stop-opacity=".2" offset="0"/><stop stop-color="#3E2723" stop-opacity="0" offset="1"/></radialGradient><path clip-path="url(#b)" d="M22 48l57 58-18 10z" transform="translate(-7 -7)" fill="url(#m)"/><radialGradient id="n" gradientUnits="userSpaceOnUse" cy="96.1" cx="671.8" gradientTransform="translate(-576)" r="87.9"><stop stop-color="#263238" stop-opacity=".2" offset="0"/><stop stop-color="#263238" stop-opacity="0" offset="1"/></radialGradient><path clip-path="url(#b)" d="M92 184l21-78 18 10z" transform="translate(-7 -7)" fill="url(#n)"/><g transform="translate(-7 -7)" clip-path="url(#b)"><circle cy="96" cx="96" r="40" fill="#f1f1f1"/><circle cy="96" cx="96" r="32" fill="#4285f4"/></g><g transform="translate(-7 -7)" clip-path="url(#b)"><path fill-opacity=".2" d="M96 55c-22 0-40 18-40 40v1c0-22 18-40 40-40h88v-1H96z" fill="#3e2723"/><path fill-opacity=".1" d="M131 116a40 40 0 01-70 0L8 24v1l53 92a40 40 0 0070 0v-1z" fill="#fff"/><path opacity=".1" d="M97 56a40 40 0 010 80 40 40 0 000-80z" fill="#3e2723"/><path fill-opacity=".2" d="M131 117a40 40 0 004-32 40 40 0 01-4 31l-39 68h1l38-67z" fill="#fff"/></g><g transform="translate(-7 -7)" clip-path="url(#b)"><path fill-opacity=".2" d="M96 9c48 0 88 39 88 88v-1A88 88 0 008 96v1C8 48 48 9 96 9z" fill="#fff"/><path fill-opacity=".1" d="M96 183c48 0 88-39 88-87A88 88 0 018 96c0 48 40 87 88 87z" fill="#3e2723"/></g><radialGradient id="o" gradientUnits="userSpaceOnUse" cy="32" cx="34.3" gradientTransform="translate(-7 -7)" r="176.8"><stop stop-color="#fff" stop-opacity=".1" offset="0"/><stop stop-color="#fff" stop-opacity="0" offset="1"/></radialGradient><circle cy="89" cx="89" r="88" fill="url(#o)"/></svg>
