<svg xmlns="http://www.w3.org/2000/svg" height="81.97" width="87.42"><defs><radialGradient gradientUnits="userSpaceOnUse" gradientTransform="translate(7978.7 8524)" r="80.8" cy="-8515.12" cx="-7907.19" id="b"><stop stop-color="#ffbd4f" offset=".13"/><stop stop-color="#ffac31" offset=".19"/><stop stop-color="#ff9d17" offset=".25"/><stop stop-color="#ff980e" offset=".28"/><stop stop-color="#ff563b" offset=".4"/><stop stop-color="#ff3750" offset=".47"/><stop stop-color="#f5156c" offset=".71"/><stop stop-color="#eb0878" offset=".78"/><stop stop-color="#e50080" offset=".86"/></radialGradient><radialGradient gradientUnits="userSpaceOnUse" gradientTransform="translate(7978.7 8524)" r="80.8" cy="-8482.09" cx="-7936.71" id="c"><stop stop-color="#960e18" offset=".3"/><stop stop-opacity=".74" stop-color="#b11927" offset=".35"/><stop stop-opacity=".34" stop-color="#db293d" offset=".43"/><stop stop-opacity=".09" stop-color="#f5334b" offset=".5"/><stop stop-opacity="0" stop-color="#ff3750" offset=".53"/></radialGradient><radialGradient gradientUnits="userSpaceOnUse" gradientTransform="translate(7978.7 8524)" r="58.53" cy="-8533.46" cx="-7926.97" id="d"><stop stop-color="#fff44f" offset=".13"/><stop stop-color="#ffdc3e" offset=".25"/><stop stop-color="#ff9d12" offset=".51"/><stop stop-color="#ff980e" offset=".53"/></radialGradient><radialGradient gradientUnits="userSpaceOnUse" gradientTransform="translate(7978.7 8524)" r="38.47" cy="-8460.98" cx="-7945.65" id="e"><stop stop-color="#3a8ee6" offset=".35"/><stop stop-color="#5c79f0" offset=".47"/><stop stop-color="#9059ff" offset=".67"/><stop stop-color="#c139e6" offset="1"/></radialGradient><radialGradient gradientUnits="userSpaceOnUse" gradientTransform="matrix(.972 -.235 .275 1.138 10095 7833.8)" r="20.4" cy="-8491.55" cx="-7935.62" id="f"><stop stop-opacity="0" stop-color="#9059ff" offset=".21"/><stop stop-opacity=".06" stop-color="#8c4ff3" offset=".28"/><stop stop-opacity=".45" stop-color="#7716a8" offset=".75"/><stop stop-opacity=".6" stop-color="#6e008b" offset=".97"/></radialGradient><radialGradient gradientUnits="userSpaceOnUse" gradientTransform="translate(7978.7 8524)" r="27.68" cy="-8518.43" cx="-7937.73" id="g"><stop stop-color="#ffe226" offset="0"/><stop stop-color="#ffdb27" offset=".12"/><stop stop-color="#ffc82a" offset=".29"/><stop stop-color="#ffa930" offset=".5"/><stop stop-color="#ff7e37" offset=".73"/><stop stop-color="#ff7139" offset=".79"/></radialGradient><radialGradient gradientUnits="userSpaceOnUse" gradientTransform="translate(7978.7 8524)" r="118.08" cy="-8535.98" cx="-7915.98" id="h"><stop stop-color="#fff44f" offset=".11"/><stop stop-color="#ff980e" offset=".46"/><stop stop-color="#ff5634" offset=".62"/><stop stop-color="#ff3647" offset=".72"/><stop stop-color="#e31587" offset=".9"/></radialGradient><radialGradient gradientUnits="userSpaceOnUse" gradientTransform="matrix(.105 .995 -.653 .069 -4680.3 8470.19)" r="86.5" cy="-8522.86" cx="-7927.16" id="i"><stop stop-color="#fff44f" offset="0"/><stop stop-color="#ffe847" offset=".06"/><stop stop-color="#ffc830" offset=".17"/><stop stop-color="#ff980e" offset=".3"/><stop stop-color="#ff8b16" offset=".36"/><stop stop-color="#ff672a" offset=".46"/><stop stop-color="#ff3647" offset=".57"/><stop stop-color="#e31587" offset=".74"/></radialGradient><radialGradient gradientUnits="userSpaceOnUse" gradientTransform="translate(7978.7 8524)" r="73.72" cy="-8508.18" cx="-7938.38" id="j"><stop stop-color="#fff44f" offset=".14"/><stop stop-color="#ff980e" offset=".48"/><stop stop-color="#ff5634" offset=".59"/><stop stop-color="#ff3647" offset=".66"/><stop stop-color="#e31587" offset=".9"/></radialGradient><radialGradient gradientUnits="userSpaceOnUse" gradientTransform="translate(7978.7 8524)" r="80.69" cy="-8503.86" cx="-7918.92" id="k"><stop stop-color="#fff44f" offset=".09"/><stop stop-color="#ffe141" offset=".23"/><stop stop-color="#ffaf1e" offset=".51"/><stop stop-color="#ff980e" offset=".63"/></radialGradient><linearGradient gradientTransform="translate(3.7)" gradientUnits="userSpaceOnUse" y2="74.47" x2="6.45" y1="12.39" x1="70.79" id="a"><stop stop-color="#fff44f" offset=".05"/><stop stop-color="#ffe847" offset=".11"/><stop stop-color="#ffc830" offset=".23"/><stop stop-color="#ff980e" offset=".37"/><stop stop-color="#ff8b16" offset=".4"/><stop stop-color="#ff672a" offset=".46"/><stop stop-color="#ff3647" offset=".53"/><stop stop-color="#e31587" offset=".7"/></linearGradient><linearGradient gradientTransform="translate(3.7)" gradientUnits="userSpaceOnUse" y2="66.81" x2="15.27" y1="12.06" x1="70.01" id="l"><stop stop-opacity=".8" stop-color="#fff44f" offset=".17"/><stop stop-opacity=".63" stop-color="#fff44f" offset=".27"/><stop stop-opacity=".22" stop-color="#fff44f" offset=".49"/><stop stop-opacity="0" stop-color="#fff44f" offset=".6"/></linearGradient></defs><path d="M79.62 26.83c-1.69-4.06-5.1-8.43-7.78-9.81a40.27 40.27 0 013.93 11.76v.07C71.4 17.92 63.96 13.52 57.9 3.92c-.3-.48-.61-.97-.91-1.48l-.43-.8A7.05 7.05 0 0155.97.1a.1.1 0 00-.09-.1.14.14 0 00-.07 0l-.02.02-.03.01.02-.03c-9.74 5.7-13.04 16.26-13.34 21.53a19.39 19.39 0 00-10.67 4.12 11.59 11.59 0 00-1-.76 17.97 17.97 0 01-.1-9.48 28.7 28.7 0 00-9.34 7.21h-.01c-1.54-1.94-1.43-8.36-1.34-9.7a6.93 6.93 0 00-1.3.68 28.23 28.23 0 00-3.79 3.25 33.84 33.84 0 00-3.62 4.35 32.73 32.73 0 00-5.2 11.74l-.05.25c-.07.34-.34 2.05-.38 2.42l-.01.09A36.94 36.94 0 005 41.04v.2a38.76 38.76 0 0076.95 6.56l.18-1.5a39.86 39.86 0 00-2.51-19.47zM34.95 57.16c.18.1.35.19.53.27l.03.02-.56-.29zm8.87-23.37zm31.96-4.94v-.03.04z" fill="url(#a)"/><path d="M79.62 26.83c-1.69-4.06-5.1-8.43-7.78-9.81a40.27 40.27 0 013.93 11.76v.08a35.1 35.1 0 01-1.2 26.16c-4.45 9.53-15.2 19.3-32.03 18.82-18.18-.51-34.2-14-37.2-31.68-.54-2.79 0-4.2.28-6.47A28.88 28.88 0 005 41.04v.2a38.76 38.76 0 0076.95 6.56l.18-1.5a39.86 39.86 0 00-2.51-19.47z" fill="url(#b)"/><path d="M79.62 26.83c-1.69-4.06-5.1-8.43-7.78-9.81a40.27 40.27 0 013.93 11.76v.08a35.1 35.1 0 01-1.2 26.16c-4.45 9.53-15.2 19.3-32.03 18.82-18.18-.51-34.2-14-37.2-31.68-.54-2.79 0-4.2.28-6.47A28.88 28.88 0 005 41.04v.2a38.76 38.76 0 0076.95 6.56l.18-1.5a39.86 39.86 0 00-2.51-19.47z" fill="url(#c)"/><path d="M60.78 31.38l.24.18a21.1 21.1 0 00-3.6-4.7C45.38 14.82 54.27.74 55.76.03l.02-.03c-9.73 5.7-13.04 16.26-13.34 21.53.45-.03.9-.06 1.36-.06a19.56 19.56 0 0116.98 9.91z" fill="url(#d)"/><path d="M43.83 33.79c-.07.96-3.47 4.29-4.67 4.29-11.02 0-12.8 6.66-12.8 6.66.48 5.62 4.4 10.24 9.12 12.69l.66.31q.57.25 1.13.47a17.23 17.23 0 005.05.97c19.31.9 23.06-23.1 9.12-30.07a13.38 13.38 0 019.34 2.27 19.56 19.56 0 00-16.98-9.91c-.46 0-.91.03-1.36.06a19.39 19.39 0 00-10.67 4.12c.6.5 1.26 1.16 2.66 2.55 2.63 2.59 9.38 5.27 9.4 5.59z" fill="url(#e)"/><path d="M43.83 33.79c-.07.96-3.47 4.29-4.67 4.29-11.02 0-12.8 6.66-12.8 6.66.48 5.62 4.4 10.24 9.12 12.69l.66.31q.57.25 1.13.47a17.23 17.23 0 005.05.97c19.31.9 23.06-23.1 9.12-30.07a13.38 13.38 0 019.34 2.27 19.56 19.56 0 00-16.98-9.91c-.46 0-.91.03-1.36.06a19.39 19.39 0 00-10.67 4.12c.6.5 1.26 1.16 2.66 2.55 2.63 2.59 9.38 5.27 9.4 5.59z" fill="url(#f)"/><path d="M29.96 24.36c.32.2.58.37.8.53a17.97 17.97 0 01-.1-9.48 28.7 28.7 0 00-9.33 7.21c.19 0 5.8-.1 8.63 1.74z" fill="url(#g)"/><path d="M5.35 42.16c3 17.67 19.01 31.17 37.2 31.68 16.83.48 27.58-9.3 32.02-18.82a35.1 35.1 0 001.2-26.16v-.04-.04l.02.07c1.37 8.98-3.2 17.67-10.33 23.55l-.03.05c-13.9 11.33-27.21 6.84-29.9 5q-.29-.13-.57-.28c-8.11-3.87-11.46-11.26-10.74-17.6a9.95 9.95 0 01-9.18-5.77 14.62 14.62 0 0114.25-.57 19.3 19.3 0 0014.55.57c-.02-.32-6.76-3-9.4-5.6-1.4-1.38-2.06-2.04-2.66-2.54a11.59 11.59 0 00-1-.76c-.23-.16-.48-.33-.8-.53-2.82-1.84-8.44-1.74-8.63-1.74h-.02c-1.53-1.94-1.43-8.36-1.34-9.7a6.93 6.93 0 00-1.3.68 28.23 28.23 0 00-3.78 3.25 33.84 33.84 0 00-3.64 4.34 32.73 32.73 0 00-5.2 11.74c-.02.08-1.4 6.1-.72 9.22z" fill="url(#h)"/><path d="M57.42 26.86a21.1 21.1 0 013.6 4.7l.59.48c8.78 8.1 4.18 19.55 3.84 20.37 7.13-5.89 11.7-14.58 10.32-23.56C71.4 17.92 63.97 13.52 57.9 3.92c-.3-.48-.61-.97-.91-1.48l-.43-.8A7.05 7.05 0 0155.97.1a.1.1 0 00-.08-.1.14.14 0 00-.08 0l-.02.02-.02.01c-1.5.71-10.4 14.79 1.66 26.83z" fill="url(#i)"/><path d="M61.6 32.04a8.08 8.08 0 00-.58-.48l-.24-.18a13.38 13.38 0 00-9.35-2.27c13.94 6.97 10.2 30.98-9.12 30.07a17.23 17.23 0 01-5.04-.97q-.57-.22-1.14-.47l-.65-.31.03.02c2.69 1.83 16 6.33 29.9-5l.03-.05c.35-.81 4.95-12.27-3.84-20.36z" fill="url(#j)"/><path d="M26.35 44.74s1.8-6.66 12.81-6.66c1.2 0 4.6-3.33 4.67-4.3a19.3 19.3 0 01-14.56-.56 14.62 14.62 0 00-14.25.57 9.95 9.95 0 009.19 5.77c-.72 6.34 2.63 13.73 10.74 17.6l.53.27c-4.73-2.45-8.64-7.07-9.13-12.69z" fill="url(#k)"/><path d="M79.62 26.83c-1.69-4.06-5.1-8.43-7.78-9.81a40.27 40.27 0 013.93 11.76v.07C71.4 17.92 63.96 13.52 57.9 3.92c-.3-.48-.61-.97-.91-1.48l-.43-.8A7.05 7.05 0 0155.97.1a.1.1 0 00-.09-.1.14.14 0 00-.07 0l-.02.02-.03.01.02-.03c-9.74 5.7-13.04 16.26-13.34 21.53.45-.03.9-.06 1.36-.06a19.56 19.56 0 0116.98 9.91 13.38 13.38 0 00-9.34-2.27c13.94 6.97 10.2 30.98-9.12 30.07a17.23 17.23 0 01-5.05-.97q-.56-.22-1.13-.47l-.66-.31.03.02-.56-.29c.18.1.35.19.53.27-4.73-2.45-8.64-7.07-9.13-12.69 0 0 1.8-6.66 12.81-6.66 1.2 0 4.6-3.33 4.67-4.3-.02-.3-6.76-3-9.4-5.58-1.4-1.39-2.07-2.05-2.66-2.55a11.59 11.59 0 00-1-.76 17.97 17.97 0 01-.1-9.48 28.7 28.7 0 00-9.34 7.21h-.01c-1.54-1.94-1.43-8.36-1.34-9.7a6.93 6.93 0 00-1.3.68 28.23 28.23 0 00-3.79 3.25 33.84 33.84 0 00-3.62 4.35 32.73 32.73 0 00-5.2 11.74l-.05.25c-.07.34-.4 2.08-.45 2.45 0 .03 0-.03 0 0a45.1 45.1 0 00-.57 5.4v.2a38.76 38.76 0 0076.95 6.56l.18-1.5a39.86 39.86 0 00-2.51-19.47zm-3.85 1.99v.04z" fill="url(#l)"/></svg>
