<svg xmlns="http://www.w3.org/2000/svg" height="218.8" width="222.6"><path fill="#1ebbee" d="M219 114c0-17-5-33-12-46 32-75-36-64-39-63-15 3-28 7-40 13h-6c-46 0-84 32-94 75 24-27 41-38 51-43l-4 5-2 1-3 3-2 2-2 3-2 2a240 240 0 00-14 16l-2 2-2 2-1 3-2 1a299 299 0 00-13 19v1l-2 3a310 310 0 00-19 37c-27 98 59 57 71 51a96 96 0 00133-54h-51c-7 12-22 21-38 21-24 0-44-19-44-41h138l1-13zm-18-95c8 6 15 15 3 44a97 97 0 00-47-39c9-4 31-13 44-5zM24 201c-7-7-8-24 7-55 8 22 23 40 42 51-10 6-35 18-49 4zm56-101c0-22 20-39 43-39 24 0 43 17 44 39H80z"/></svg>
