<svg xmlns="http://www.w3.org/2000/svg" xmlns:xlink="http://www.w3.org/1999/xlink" width="250.1" height="248.7" viewBox="0 0 66.2 65.8"><defs><linearGradient id="b"><stop offset="0" stop-color="#06c2e7"/><stop offset=".3" stop-color="#0db8ec"/><stop offset=".5" stop-color="#12aef1"/><stop offset=".8" stop-color="#1f86f9"/><stop offset="1" stop-color="#107ddd"/></linearGradient><linearGradient id="a"><stop offset="0" stop-color="#bdbdbd"/><stop offset="1" stop-color="#fff"/></linearGradient><linearGradient xlink:href="#a" id="d" x1="413" y1="237.6" x2="413" y2="59.4" gradientUnits="userSpaceOnUse" gradientTransform="matrix(.35154 0 0 .35154 206.8 159.8)"/><filter id="f" x="0" width="1" y="0" height="1" color-interpolation-filters="sRGB"><feGaussianBlur stdDeviation="1"/></filter><filter id="c" x="0" width="1.1" y="0" height="1.1" color-interpolation-filters="sRGB"><feGaussianBlur stdDeviation="3.6"/></filter><radialGradient xlink:href="#b" id="e" cx="413.1" cy="136.8" fx="413.1" fy="136.8" r="82.1" gradientUnits="userSpaceOnUse" gradientTransform="matrix(.38143 0 0 .38143 194.5 155.6)"/></defs><path transform="matrix(.33865 0 0 .3261 -106.8 -14.5)" d="M502 148.5a89.1 89.1 0 01-89 89.1 89.1 89.1 0 01-89.1-89.1 89.1 89.1 0 0189-89.1 89.1 89.1 0 0189.2 89.1z" opacity=".5" paint-order="markers stroke fill" filter="url(#c)"/><path d="M383.3 212a31.3 31.3 0 01-31.3 31.3 31.3 31.3 0 01-31.4-31.3 31.3 31.3 0 0131.4-31.3 31.3 31.3 0 0131.3 31.3z" fill="url(#d)" stroke="#cdcdcd" stroke-width=".1" stroke-linecap="round" stroke-linejoin="round" paint-order="markers stroke fill" transform="translate(-318.9 -180.6)"/><path d="M380.8 212a28.9 28.9 0 01-28.8 28.8A28.9 28.9 0 01323 212 28.9 28.9 0 01352 183a28.9 28.9 0 0128.8 28.9z" fill="url(#e)" paint-order="markers stroke fill" transform="translate(-318.9 -180.6)"/><path d="M33 4c-.2 0-.3.2-.3.4v4.9a.4.4 0 10.8 0V4.4c0-.2-.2-.4-.4-.4zm-2.7.2c-.3 0-.5.2-.4.5l.2 2a.4.4 0 10.8-.1l-.2-2c0-.2-.2-.4-.4-.4zm5.6 0c-.2 0-.4.2-.4.4l-.2 2a.4.4 0 10.8 0l.2-2a.4.4 0 00-.4-.4zm-8.4.4c-.3 0-.5.3-.4.5l1 4.8a.4.4 0 10.8-.2l-1-4.8c0-.2-.2-.3-.4-.3zm11.2 0c-.2 0-.4.1-.4.3l-1 4.8a.4.4 0 10.8.2L39 5a.4.4 0 00-.4-.5zm-13.9.8h-.2c-.2 0-.3.3-.2.5l.6 2a.4.4 0 10.8-.3l-.6-2-.4-.2zm16.6 0c-.2 0-.3 0-.4.3l-.6 1.9a.4.4 0 10.8.3l.6-2a.4.4 0 00-.4-.5zM22 6.4H22c-.2 0-.3.3-.2.5l2 4.5a.4.4 0 10.7-.4l-2-4.4c0-.2-.2-.3-.4-.3zm22 0c-.2 0-.4 0-.4.2l-2 4.4a.4.4 0 10.8.4l2-4.5a.4.4 0 00-.4-.5zM19.7 7.7h-.3c-.2.1-.3.4-.1.6l1 1.7a.4.4 0 10.7-.4L20 8c0-.2-.2-.2-.3-.2zm26.8 0c-.1 0-.2 0-.3.2l-1 1.7a.4.4 0 10.7.4l1-1.7a.4.4 0 00-.4-.6zM17.2 9.2a.4.4 0 00-.3.6l2.9 4a.4.4 0 10.7-.5l-2.9-4s-.2-.2-.4-.1zm31.7 0l-.3.1-2.9 4a.4.4 0 10.7.5l2.9-4a.4.4 0 00-.4-.6zM15.1 11h-.3c-.2.2-.2.5 0 .7l1.3 1.5c.2.1.4.2.6 0 .2-.1.2-.4 0-.6l-1.3-1.5-.3-.1zm36 0l-.3.1-1.4 1.5a.4.4 0 10.6.6l1.4-1.5a.4.4 0 00-.3-.7zm-38 2a.4.4 0 00-.3.7l3.6 3.2a.4.4 0 10.5-.6L13.3 13H13zm40 0h-.3l-3.6 3.3a.4.4 0 10.6.6l3.6-3.2a.4.4 0 00-.3-.8zM11.3 15c-.1 0-.2 0-.3.2-.2.2-.1.5 0 .6l1.7 1.2h.6v-.7l-1.7-1.2h-.3zm43.6 0l-.3.1-1.6 1.2a.4.4 0 10.5.7L55 16a.4.4 0 00-.2-.7zM9.7 17.6c-.1 0-.2 0-.3.2-.1.2 0 .5.1.6l4.2 2.4a.4.4 0 10.5-.7L10 17.5h-.3zm46.7 0h-.2L52 20a.4.4 0 10.4.7l4.2-2.4a.4.4 0 00-.2-.8zM8.5 20c-.2 0-.3 0-.4.2 0 .3 0 .5.2.6l1.9.8a.4.4 0 10.3-.7L8.7 20h-.2zm49.2 0h-.2l-1.9.9a.4.4 0 10.4.7l1.8-.8a.4.4 0 00-.1-.8zM7.4 22.6c-.1 0-.3.1-.3.3-.1.2 0 .5.2.5L12 25a.4.4 0 10.2-.8l-4.6-1.5h-.2zm51.3 0h-.1L54 24.3a.4.4 0 10.2.8l4.6-1.5a.4.4 0 000-.9zm-52 2.8l-.4.3c0 .2.1.4.4.5l2 .4a.4.4 0 10.1-.8l-2-.4zm52.7 0l-2 .4c-.3 0-.4.3-.4.5s.3.4.5.3l2-.4a.4.4 0 000-.8zM6.2 28c-.1 0-.3.2-.3.4s.1.4.3.5l4.9.5a.4.4 0 100-.9l-4.8-.5zm53.7 0l-4.9.6a.4.4 0 10.1.8l4.8-.5a.4.4 0 000-.8zM6.2 31a.4.4 0 100 .8h2a.4.4 0 100-.8zM58 31a.4.4 0 100 .8h2a.4.4 0 100-.8zm-46.8 2.3H11l-4.9.5a.4.4 0 10.1.8l4.9-.5a.4.4 0 000-.8zm43.8 0c-.2 0-.3.2-.4.4 0 .2.2.4.4.4l4.8.5a.4.4 0 10.1-.8l-4.8-.5zM8.7 36l-2 .5a.4.4 0 10.1.8l2-.4a.4.4 0 000-.9zm48.7 0c-.2 0-.4.2-.4.4s.1.4.3.5l2 .4a.4.4 0 10.2-.8l-2-.5zm-45.3 1.7H12l-4.6 1.5a.4.4 0 10.3.8l4.6-1.5a.4.4 0 000-.8zm42 0c-.2 0-.4.1-.4.3 0 .2 0 .5.3.5l4.6 1.5a.4.4 0 10.2-.8l-4.6-1.5H54zm-43.7 3.3h-.2l-1.9.8a.4.4 0 10.4.8l1.8-.8a.4.4 0 00-.1-.8zm45.4 0c-.2 0-.3 0-.4.2 0 .3 0 .5.2.6l1.9.8a.4.4 0 10.3-.7L56 41h-.2zM14 42h-.3l-4.2 2.4a.4.4 0 10.5.7l4.2-2.4a.4.4 0 00-.2-.8zm38.2 0l-.4.1c0 .2 0 .5.2.6l4.2 2.4a.4.4 0 10.4-.7L52.4 42s-.1-.1-.2 0zm-39.3 3.5h-.2L11 46.8a.4.4 0 10.5.7l1.7-1.2a.4.4 0 00-.3-.7zm40.3 0c-.1 0-.2 0-.3.2-.2.1-.1.4 0 .5l1.7 1.2c.2.2.5.1.6 0v-.6l-1.7-1.2-.3-.1zm-36.5.1l-.3.1-3.6 3.3a.4.4 0 10.5.6l3.6-3.2a.4.4 0 00-.2-.8zm32.8 0a.4.4 0 00-.3.8l3.6 3.2a.4.4 0 10.6-.6l-3.6-3.3h-.3zM20 48.8c-.1 0-.3 0-.4.2L17 53a.4.4 0 10.7.4l2.8-4a.4.4 0 00-.3-.6zm26 0a.4.4 0 00-.4.7l2.9 4a.4.4 0 10.6-.6L46.4 49l-.4-.2zm-29.7.6l-.3.2-1.3 1.5a.4.4 0 10.6.6l1.4-1.5a.4.4 0 00-.4-.8zm33.3 0s-.2 0-.3.2v.6l1.4 1.5c.1.1.4.2.6 0 .1-.2.2-.4 0-.6L50 49.6l-.3-.1zm-25.6 1.7c-.2 0-.3.1-.4.3l-2 4.4a.4.4 0 10.8.4l2-4.5a.4.4 0 00-.4-.6zm18 0a.4.4 0 00-.4.6l2 4.5a.4.4 0 10.7-.4l-2-4.4c0-.2-.2-.3-.4-.3zm-21.5 1.4c-.1 0-.2 0-.3.2l-1 1.8a.4.4 0 10.7.4l1-1.8a.4.4 0 00-.4-.6zm25 0h-.3c-.2.2-.3.4-.1.6l1 1.8a.4.4 0 10.7-.4l-1-1.8-.3-.2zm-17.1 0c-.2 0-.4.2-.4.4l-1 4.8a.4.4 0 10.8.1l1-4.7a.4.4 0 00-.4-.5zm9.2 0h-.1c-.3.1-.4.4-.4.6l1 4.7a.4.4 0 10.9-.1l-1-4.8c0-.2-.2-.3-.4-.3zm-4.6.6c-.3 0-.4.1-.4.4v4.8a.4.4 0 10.8 0v-4.8c0-.3-.2-.4-.4-.4zm-7.7 1.5c-.2 0-.4.1-.4.3l-.6 2a.4.4 0 10.8.2l.6-2a.4.4 0 00-.4-.5zm15.4 0h-.2c-.2.1-.3.3-.2.6l.6 2a.4.4 0 10.8-.3l-.6-2c0-.2-.2-.3-.4-.3zm-10.4 1.1c-.2 0-.3.2-.3.4l-.2 2c0 .2 0 .4.3.5.3 0 .5-.2.5-.4l.2-2a.4.4 0 00-.5-.5zm5.3 0c-.3 0-.5.2-.5.5l.3 2c0 .2.2.4.4.4.3 0 .4-.3.4-.5l-.2-2c0-.2-.2-.4-.4-.4z" fill="#f4f2f3" paint-order="markers stroke fill"/><path transform="matrix(.35154 0 0 .35154 -112.1 -20.8)" d="M469.1 100.6l-65.5 38-41.4 65.3 60.6-45z" opacity=".4" paint-order="markers stroke fill" filter="url(#f)"/><path d="M36.4 34.8L29.8 28l23.4-15.7z" fill="#ff5150" paint-order="markers stroke fill"/><path d="M36.4 34.8L29.8 28 13 50.6z" fill="#f1f1f1" paint-order="markers stroke fill"/><path d="M13 50.6l23.4-15.8 16.8-22.6z" opacity=".2"/></svg>
